<svg width="48" height="54" viewBox="0 0 48 54" fill="none" xmlns="http://www.w3.org/2000/svg">
<path d="M31.9335 25.6703C29.5665 27.5648 14.0662 39.9758 10.4775 42.8513L4.40922 36.783L21.6622 15.399L31.9335 25.6703ZM43.8787 3.46952C39.255 -1.15423 31.7557 -1.15423 27.132 3.46952C24.0832 6.52052 23.8245 9.86402 23.676 11.0498L36.2985 23.6723C37.3875 23.5508 40.803 23.292 43.8787 20.2163C48.5047 15.5925 48.5047 8.09327 43.8787 3.46952ZM21.7522 43.8345C16.5952 43.8345 14.2395 47.0453 10.9162 49.1333C8.5627 50.6093 6.33522 49.86 5.26422 48.5348C4.87497 48.06 3.76347 46.35 5.65572 44.3903L5.37447 44.109L2.84097 41.6543C-0.246029 44.8403 0.300721 48.6473 2.21322 51.0075C4.40697 53.7165 8.8192 55.0845 13.002 52.4588C16.5682 50.22 18.1477 47.7608 21.7522 47.7608C24.0832 47.7608 26.2072 48.8048 29.5935 54L32.8807 51.858C29.7465 47.043 26.6527 43.8345 21.7522 43.8345Z" fill="#EAEAEA"/>
</svg>
